<svg version="1.1" id="Layer_1" xmlns="http://www.w3.org/2000/svg" xmlns:xlink="http://www.w3.org/1999/xlink" x="0px" y="0px"
	 width="100%" viewBox="0 0 1024 1024" enable-background="new 0 0 1024 1024" xml:space="preserve">
<path fill="#000000" opacity="1.000000" stroke="none" 
	d="
M338.083893,535.825317 
	C324.006165,495.818817 308.426025,456.893188 287.796173,420.164764 
	C280.532013,407.231995 272.748291,394.609192 264.503998,382.286652 
	C262.164886,378.790436 261.765747,376.678040 265.432739,373.670807 
	C274.240173,366.448120 273.964569,366.315826 281.153625,375.323456 
	C302.665161,402.276672 324.430206,429.029236 345.767853,456.118866 
	C359.682831,473.784882 372.830505,492.044495 385.404877,510.699524 
	C386.888367,512.900330 388.194305,513.817932 391.095978,513.033936 
	C419.076019,505.474396 447.429901,499.877472 476.377991,497.706116 
	C480.367981,497.406830 481.143860,494.617371 482.061035,491.769012 
	C488.591705,471.488220 493.921722,450.889221 498.740265,430.136414 
	C504.347443,405.986938 508.180847,381.515289 512.171204,357.086395 
	C514.444641,343.168457 515.488464,329.027466 516.551331,314.946594 
	C516.899780,310.330139 518.016296,308.014771 522.886841,308.682831 
	C523.377563,308.750153 523.885437,308.693268 524.385315,308.693237 
	C532.957275,308.692780 532.672363,308.715607 533.347900,317.141205 
	C534.822876,335.538788 537.477600,353.793610 540.312500,372.032745 
	C545.811707,407.412170 553.512451,442.292847 563.371216,476.699097 
	C564.926819,482.127930 567.106750,487.376068 568.933899,492.729584 
	C569.975342,495.780914 572.114868,497.238800 575.234314,497.556091 
	C603.421204,500.422821 631.233215,505.348602 658.531250,512.985474 
	C661.191101,513.729553 662.454834,512.865173 663.833130,510.808624 
	C690.583618,470.895538 721.115356,433.865265 751.113403,396.427307 
	C758.196411,387.587585 765.168396,378.658905 772.206177,369.782806 
	C773.118225,368.632568 773.754395,367.170105 775.862183,366.599548 
	C779.146179,369.439514 782.659851,372.439636 786.128723,375.490662 
	C788.718140,377.768066 786.744995,379.665558 785.509460,381.576813 
	C773.111633,400.755463 761.505981,420.397461 751.194946,440.780457 
	C732.508789,477.719299 717.503296,516.136719 705.221741,555.645508 
	C702.207642,565.341431 699.338806,575.075073 697.190674,584.998474 
	C696.272888,589.238159 694.670105,590.196777 690.332031,588.467285 
	C654.523987,574.191467 617.118103,566.636353 578.950317,562.198547 
	C554.742310,559.383972 530.475708,558.490479 506.168854,559.378052 
	C468.119263,560.767334 430.665680,566.452942 393.906464,576.440125 
	C381.865021,579.711670 369.763641,582.899475 358.436371,588.307678 
	C354.540009,590.168030 353.790833,587.588379 353.066864,584.877014 
	C348.687439,568.474792 343.823578,552.221191 338.083893,535.825317 
z"/>
<path fill="#000000" opacity="1.000000" stroke="none" 
	d="
M353.852570,667.795654 
	C355.327698,666.519714 356.603607,666.903809 357.885986,667.344177 
	C383.498291,676.138550 410.091034,680.371582 436.691620,684.816650 
	C473.302032,690.934448 510.154083,692.567200 547.116699,691.530273 
	C595.751221,690.165955 643.328186,681.811340 689.826660,667.510864 
	C693.963135,666.238708 695.377014,667.210083 696.490662,671.131165 
	C701.261108,687.927368 705.177612,704.978088 711.196350,721.406860 
	C712.362610,724.590271 711.498718,726.286072 708.117493,727.203674 
	C673.731018,736.534973 639.050232,744.444824 603.727539,749.371338 
	C572.351196,753.747559 540.856140,756.220398 509.160370,755.135071 
	C480.183899,754.142822 451.463440,750.575684 422.880096,745.876221 
	C395.607452,741.392273 368.857666,734.522705 342.043152,727.951477 
	C338.873230,727.174683 336.817505,726.229248 337.971405,722.293823 
	C343.259003,704.259644 348.412170,686.186035 353.852570,667.795654 
z"/>
</svg>