<?xml version="1.0" encoding="utf-8"?>
<svg viewBox="0 370.332 896.292 289.196" xmlns="http://www.w3.org/2000/svg">
    <g transform="matrix(0.10000000149011612, 0, 0, -0.10000000149011612, -65.29524230957031, 1027.235595703125)" fill="#000000" stroke="none">
        <path d="M4768 5909 c-10 -6 -229 -8 -558 -7 -370 2 -540 0 -540 -7 0 -6 25 -19 55 -30 74 -25 124 -69 135 -120 5 -22 10 -314 10 -649 0 -595 0 -609 -20 -645 -25 -43 -74 -77 -124 -87 -20 -3 -36 -10 -34 -15 2 -5 252 -11 556 -13 432 -4 554 -3 557 7 2 6 6 55 9 107 3 52 12 128 21 168 8 40 13 77 10 82 -3 5 -17 4 -33 -1 -21 -8 -37 -32 -74 -110 l-47 -99 -266 0 -265 0 0 300 0 300 200 0 c226 0 205 8 240 -94 12 -37 22 -51 36 -51 17 0 21 15 35 163 9 89 20 173 23 187 5 19 2 27 -10 32 -16 6 -36 -12 -84 -75 -14 -19 -29 -21 -230 -24 l-215 -3 -3 150 c-2 83 0 201 3 263 l7 112 233 0 c214 0 234 -1 239 -17 5 -19 20 -80 30 -124 3 -15 14 -29 25 -32 16 -4 20 2 26 40 3 25 13 63 21 86 18 50 57 208 52 212 -2 2 -11 -1 -20 -6z"/>
        <path d="M2143 5897 c-4 -6 38 -27 56 -27 4 0 28 -14 55 -30 89 -57 86 -26 86 -725 0 -573 -2 -612 -19 -651 -19 -43 -64 -77 -129 -100 -20 -6 -38 -16 -39 -20 -2 -5 150 -9 337 -9 187 0 340 3 340 6 0 3 -25 16 -56 28 -30 13 -69 35 -86 49 -58 49 -62 71 -66 361 -2 169 0 267 6 273 6 6 29 8 54 4 49 -7 39 6 270 -371 60 -99 127 -203 149 -232 46 -61 113 -97 209 -113 80 -12 317 -13 324 -1 3 5 -19 19 -49 31 -118 48 -136 67 -315 325 -93 134 -281 417 -286 429 -3 9 16 16 62 25 95 17 163 52 222 114 58 63 86 114 108 198 38 148 -40 300 -191 374 -103 51 -158 57 -613 64 -233 3 -426 3 -429 -2z m747 -148 c78 -17 139 -63 175 -133 26 -53 30 -70 30 -145 0 -74 -4 -94 -28 -143 -43 -88 -131 -147 -256 -174 -75 -16 -177 -19 -185 -5 -3 5 -3 144 1 310 l6 301 103 0 c57 0 126 -5 154 -11z"/>
        <path d="M5034 5901 c-11 -11 -1 -19 39 -30 63 -19 125 -58 142 -91 23 -44 23 -1276 0 -1320 -20 -38 -74 -79 -127 -94 -23 -7 -43 -17 -45 -22 -2 -5 135 -10 327 -10 182 -1 330 2 330 6 0 5 -16 14 -36 20 -42 14 -99 62 -119 99 -11 21 -14 151 -16 667 l-3 640 23 33 c15 21 47 43 87 62 35 15 64 32 64 36 0 8 -658 12 -666 4z"/>
        <path d="M6580 5891 c0 -5 21 -14 48 -20 114 -29 214 -97 253 -172 18 -36 19 -65 19 -624 0 -645 2 -619 -62 -669 -18 -13 -55 -31 -82 -38 -28 -8 -51 -19 -53 -24 -3 -8 463 -9 567 -1 l35 3 -30 8 c-63 18 -158 72 -182 102 -37 50 -42 119 -35 502 l7 352 160 -171 c88 -95 247 -267 354 -383 107 -116 239 -258 294 -316 l99 -105 -5 640 c-3 352 -2 677 2 723 10 99 26 126 99 162 28 14 54 28 58 33 4 4 -124 7 -284 7 -171 0 -292 -4 -292 -9 0 -5 35 -21 79 -36 43 -14 99 -39 123 -54 76 -48 77 -55 80 -504 2 -213 2 -387 2 -387 -4 0 -303 309 -484 500 -112 118 -265 277 -339 353 l-136 137 -147 0 c-82 0 -148 -4 -148 -9z"/>
        <path d="M5941 5879 c-54 -10 -166 -47 -203 -66 -30 -15 -38 -50 -14 -59 8 -3 24 0 36 6 64 34 293 29 405 -10 113 -39 142 -77 152 -200 6 -75 7 -80 29 -80 19 0 25 9 39 58 9 31 34 98 56 149 21 51 39 96 39 100 0 13 -180 80 -262 97 -83 17 -205 19 -277 5z"/>
        <path d="M5855 4980 c-7 -12 27 -29 140 -70 50 -18 102 -39 118 -47 l27 -14 0 -194 0 -195 -37 0 c-60 1 -173 18 -228 34 -63 19 -143 71 -158 103 -5 12 -18 23 -29 23 -16 0 -18 -9 -18 -78 0 -92 10 -110 76 -142 117 -55 173 -61 537 -63 185 -1 337 0 337 3 0 3 -30 20 -66 39 -46 24 -74 46 -92 74 -26 39 -27 45 -30 217 l-3 176 25 25 c14 14 59 41 100 60 42 19 75 40 76 47 0 15 -765 18 -775 2z"/>
    </g>
</svg>